<svg t="1669289533483" class="icon" viewBox="0 0 1024 1024" version="1.1" xmlns="http://www.w3.org/2000/svg"
      p-id="17387" width="200" height="200">
      <path
        d="M794.88 382.0032c-16.9472 0-30.72-13.7728-30.72-30.72V193.1264c0-16.9472 13.7728-30.72 30.72-30.72s30.72 13.7728 30.72 30.72v158.1568c0 16.9984-13.7728 30.72-30.72 30.72z"
        fill="#e91c0c" p-id="17388"></path>
      <path
        d="M911.7696 492.8a30.6688 30.6688 0 0 1-20.5312-7.8848l-335.5136-301.312a74.8544 74.8544 0 0 0-100.7104 0.3584L125.5424 484.2496a30.75072 30.75072 0 0 1-43.4176-1.9968 30.75072 30.75072 0 0 1 1.9968-43.4176L413.696 138.5472a136.12544 136.12544 0 0 1 183.1424-0.6656l335.5136 301.312c12.5952 11.3152 13.6704 30.7712 2.304 43.3664-6.0928 6.8096-14.4384 10.24-22.8864 10.24z"
        fill="#7DCCC3" p-id="17389"></path>
      <path
        d="M697.9584 915.8144h-382.976c-89.7024 0-162.6624-72.96-162.6624-162.6624v-195.2768c0-25.7536 10.9568-50.432 30.1056-67.7376l267.3664-241.5104c32.3072-29.184 81.0496-29.2352 113.408-0.1024l267.2128 240.2816c19.2 17.3056 30.2592 41.984 30.2592 67.84v196.4544c-0.0512 89.7536-73.0112 162.7136-162.7136 162.7136zM506.5216 288.256c-5.5808 0-11.1616 1.9968-15.5648 5.9904l-267.3664 241.5104a29.87008 29.87008 0 0 0-9.8304 22.1184v195.2768c0 55.808 45.4144 101.2224 101.2224 101.2224h382.976c55.808 0 101.2224-45.4144 101.2224-101.2224v-196.4544c0-8.448-3.584-16.5376-9.8816-22.1696l-267.2128-240.2816a23.20896 23.20896 0 0 0-15.5648-5.9904z"
        fill="#10aec2" p-id="17390"></path>
      <path
        d="M428.0832 698.3168H300.9536c-16.9472 0-30.72-13.7728-30.72-30.72v-99.4304c0-16.9472 13.7728-30.72 30.72-30.72h127.1296c16.9472 0 30.72 13.7728 30.72 30.72v99.4304c0 16.9472-13.7216 30.72-30.72 30.72z m-96.4096-61.44h65.6896v-37.9904H331.6736v37.9904z"
        fill="#4a8e99" p-id="17391"></path>
      <path
        d="M698.0096 816.3328c-16.9472 0-30.72-13.7728-30.72-30.72v-186.7264h-78.9504v186.7264c0 16.9472-13.7728 30.72-30.72 30.72s-30.72-13.7728-30.72-30.72v-217.4464c0-16.9472 13.7728-30.72 30.72-30.72h140.3904c16.9472 0 30.72 13.7728 30.72 30.72v217.4464c0 16.9472-13.7728 30.72-30.72 30.72z"
        fill="#4a8e99" p-id="17392"></path>
    </svg>